<?xml version="1.0" encoding="UTF-8"?>
<svg xmlns="http://www.w3.org/2000/svg" xmlns:xlink="http://www.w3.org/1999/xlink" width="480px" height="433px" viewBox="0 0 479 433" version="1.1">
<defs>
<linearGradient id="linear0" gradientUnits="userSpaceOnUse" x1="1.08633" y1="0.13818" x2="0.46927" y2="0.78776" gradientTransform="matrix(382.558594,0,0,284.121094,73.496094,146.566406)">
<stop offset="0.18" style="stop-color:rgb(0%,32.156863%,80%);stop-opacity:1;"/>
<stop offset="1" style="stop-color:rgb(14.901961%,51.764706%,100%);stop-opacity:1;"/>
</linearGradient>
</defs>
<g id="surface1">
<path style=" stroke:none;fill-rule:nonzero;fill:rgb(14.901961%,51.764709%,100%);fill-opacity:1;" d="M 17.222656 2.875 C 12.722656 2.816406 8.425781 4.753906 5.488281 8.171875 C 2.550781 11.585938 1.269531 16.128906 1.992188 20.578125 L 66.652344 413.792969 C 68.316406 423.726562 76.859375 431.03125 86.910156 431.113281 L 397.117188 431.113281 C 404.660156 431.210938 411.140625 425.757812 412.347656 418.296875 L 477.011719 20.652344 C 477.730469 16.203125 476.449219 11.664062 473.511719 8.25 C 470.570312 4.835938 466.277344 2.894531 461.777344 2.957031 Z M 289.5 287.070312 L 190.488281 287.070312 L 163.679688 146.765625 L 313.492188 146.765625 Z M 289.5 287.070312 "/>
<path style=" stroke:none;fill-rule:nonzero;fill:url(#linear0);" d="M 456.054688 146.566406 L 313.214844 146.566406 L 289.242188 286.761719 L 190.3125 286.761719 L 73.496094 425.65625 C 77.199219 428.863281 81.921875 430.644531 86.816406 430.6875 L 396.847656 430.6875 C 404.390625 430.78125 410.863281 425.335938 412.070312 417.878906 Z M 456.054688 146.566406 "/>
</g>
</svg>
